<mxfile host="app.diagrams.net" modified="2023-07-22T07:51:11.697Z" agent="Mozilla/5.0 (Macintosh; Intel Mac OS X 10_15_7) AppleWebKit/537.36 (KHTML, like Gecko) Chrome/114.0.0.0 Safari/537.36" version="21.6.5" etag="A7pY4dpj3poJUMAxGF5Y" type="github">
  <diagram name="第 1 页" id="Db0GMH3q4XDtznlgqaTg">
    <mxGraphModel>
      <root>
        <mxCell id="0" />
        <mxCell id="1" parent="0" />
      </root>
    </mxGraphModel>
  </diagram>
</mxfile>
